<?xml version="1.0" encoding="iso-8859-1"?>
<!-- Generator: Adobe Illustrator 19.0.1, SVG Export Plug-In . SVG Version: 6.00 Build 0)  -->
<svg version="1.1" xmlns="http://www.w3.org/2000/svg" xmlns:xlink="http://www.w3.org/1999/xlink" x="0px" y="0px"
	 viewBox="0 0 128 128" style="enable-background:new 0 0 128 128;" xml:space="preserve">
<g id="_x36_">
	<path id="icon_14_" style="fill:#ffffff;" d="M87.104,44.974v20.739h-8.171V50.407h-4.148v15.305H54.046V50.407h-4.148v15.305
		h-8.42V44.974c0-8.213,15.036-12.443,22.813-12.443S87.104,36.761,87.104,44.974z M64.291,26.113c5.791,0,10.37-4.737,10.37-10.581
		v-3.529c0-5.844-4.579-10.581-10.37-10.581c-5.791,0-10.37,4.737-10.37,10.581v3.529C53.922,21.376,58.501,26.113,64.291,26.113z
		 M20.739,32.123v-3.529c0-5.844-4.579-10.581-10.37-10.581C4.579,18.013,0,22.75,0,28.594v3.529c0,5.844,4.579,10.581,10.37,10.581
		C16.16,42.704,20.739,37.967,20.739,32.123z M18.523,55.313l0.142,29.065h14.517c4.406,0,8.332,2.785,9.787,6.944v35.256
		l-13.935-0.722v-24.887H12.443C5.571,100.969,0,95.398,0,88.526V55.343c0-4.582,3.714-6.222,8.296-6.222h4.005
		C15.725,49.122,18.506,51.889,18.523,55.313z M117.63,42.704c5.791,0,10.37-4.737,10.37-10.581v-3.529
		c0-5.844-4.579-10.581-10.37-10.581c-5.791,0-10.37,4.737-10.37,10.581v3.529C107.261,37.967,111.84,42.704,117.63,42.704z
		 M115.699,49.122h4.005c4.582,0,8.296,1.64,8.296,6.222v33.182c0,6.872-5.571,12.443-12.443,12.443H98.965v24.887l-13.935,0.722
		V91.322c1.456-4.159,5.381-6.944,9.787-6.944h14.517l0.142-29.065C109.494,51.889,112.275,49.122,115.699,49.122z M69.476,79.193
		h32.146v-10.37H29.035v10.37h30.072v46.663h10.37V79.193z"/>
</g>
<g id="Layer_1">
</g>
</svg>
